<svg xmlns="http://www.w3.org/2000/svg" width="200" zoomAndPan="magnify" viewBox="0 0 150 60" height="80" preserveAspectRatio="xMidYMid meet" xmlns:v="https://vecta.io/nano"><style><![CDATA[.B{fill:rgb(42.349243%, 21.179199%, 100%)}.C{clip-rule:nonzero}.D{fill:rgb(14.118958%, 10.5896%, 14.898682%)}]]></style><defs><clipPath id="A"><path d="M4.5 28H49v10H4.5zm0 0" class="C"/></clipPath><clipPath id="B"><path d="M7 37h18v18.934H7zm0 0" class="C"/></clipPath><clipPath id="C"><path d="M29 37h18v18.934H29zm0 0" class="C"/></clipPath></defs><path fill="rgb(43.919373%, 0%, 100%)" d="M144.129 70.078H-17.898a4.5 4.5 0 0 1-4.488-4.488V5.566a4.5 4.5 0 0 1 4.488-4.488h162.027c2.473 0 4.484 2.016 4.484 4.488V65.59c0 2.473-2.012 4.488-4.484 4.488"/><path fill="rgb(14.118958%, 14.118958%, 30.198669%)" d="M138.684 75.75H-23.348c-2.473 0-4.484-2.016-4.484-4.488V11.238c0-2.473 2.012-4.488 4.484-4.488h162.031c2.469 0 4.484 2.016 4.484 4.488v60.023c0 2.473-2.016 4.488-4.484 4.488"/><path d="M14.746 20.547h24.297v10.352H14.746V20.547" class="D"/><g clip-path="url(#A)" class="B"><path d="M26.66 32.293c-3.445 0-6.785.441-10.031 1.328a40.08 40.08 0 0 0-9.281 3.844c-.18.094-.332.156-.457.188-.133.031-.266.047-.395.047-.227 0-.41-.055-.555-.168s-.27-.258-.383-.43l-1.164-1.902c1.852-1.215 3.691-2.242 5.512-3.086a38.02 38.02 0 0 1 5.477-2.055 38.78 38.78 0 0 1 5.539-1.152c1.863-.238 3.773-.355 5.738-.355 1.949 0 3.859.117 5.73.355a38.12 38.12 0 0 1 5.539 1.152 38.06 38.06 0 0 1 5.465 2.055c1.824.844 3.668 1.871 5.531 3.086l-1.18 1.902c-.113.172-.242.316-.387.43s-.328.168-.551.168c-.246 0-.52-.078-.824-.234-2.934-1.691-6.023-2.98-9.273-3.859s-6.602-1.312-10.051-1.312zm0 0"/></g><path d="M14.727 11.781l3.539.652-3.746 20.352-3.543-.652 3.75-20.352m20.679.692l3.539-.652 3.746 20.352-3.543.652-3.742-20.352" class="B"/><path d="M14.676 41.27c-2.859 0-5.176 2.316-5.176 5.176s2.316 5.172 5.176 5.172a5.17 5.17 0 0 0 5.172-5.172c0-2.859-2.312-5.176-5.172-5.176" class="D"/><g clip-path="url(#B)" class="B"><path d="M15.719 55.152c-4.75 0-8.625-3.875-8.625-8.637 0-4.746 3.875-8.625 8.625-8.625a8.64 8.64 0 0 1 8.621 8.625 8.63 8.63 0 0 1-8.621 8.637zm0-12.512c-2.133 0-3.879 1.746-3.879 3.875a3.89 3.89 0 0 0 3.879 3.875c2.129 0 3.871-1.742 3.871-3.875a3.88 3.88 0 0 0-3.871-3.875zm0 0"/></g><path d="M39.094 41.27a5.18 5.18 0 0 0-5.176 5.176 5.18 5.18 0 0 0 5.176 5.172c2.859 0 5.176-2.316 5.176-5.172s-2.316-5.176-5.176-5.176" class="D"/><g clip-path="url(#C)" class="B"><path d="M38.172 55.152a8.65 8.65 0 0 1-8.625-8.637 8.65 8.65 0 0 1 8.625-8.625 8.64 8.64 0 0 1 8.625 8.625c.012 4.762-3.863 8.637-8.625 8.637zm0-12.512a3.89 3.89 0 0 0-3.875 3.875 3.89 3.89 0 0 0 3.875 3.875c2.133 0 3.875-1.742 3.875-3.875a3.88 3.88 0 0 0-3.875-3.875zm0 0"/></g><path d="M14.793 11.777H39.09v10.352H14.793V11.777" class="B"/><g fill="rgb(66.268921%, 41.958618%, 100%)"><path d="M67.199 32.227h-4.562v-6.859H57.34v6.859h-4.578V15.383h4.578v6.25h5.297v-6.25H67.2zm14.332 0l-.859-1.734h-.094c-.605.762-1.227 1.281-1.859 1.563-.625.27-1.437.406-2.437.406-1.23 0-2.199-.367-2.906-1.109-.699-.738-1.047-1.773-1.047-3.109 0-1.395.477-2.43 1.438-3.109.969-.676 2.375-1.055 4.219-1.141l2.172-.078v-.172c0-1.082-.531-1.625-1.594-1.625-.949 0-2.156.324-3.625.969l-1.297-2.969c1.52-.781 3.438-1.172 5.75-1.172 1.676 0 2.973.418 3.891 1.25.914.824 1.375 1.98 1.375 3.469v8.563zm-3.328-2.953c.539 0 1.004-.172 1.391-.516s.578-.789.578-1.344v-1.016l-1.031.047c-1.48.055-2.219.602-2.219 1.641 0 .793.426 1.188 1.281 1.188zm14.724-3.703l-3.984-6.391h5.125l1.984 3.656 2.016-3.656h5.125l-4.078 6.391 4.25 6.656H98.24l-2.187-3.969-2.203 3.969h-5.125zm27.009.093c0 2.137-.574 3.805-1.719 5s-2.75 1.797-4.812 1.797c-1.992 0-3.574-.609-4.75-1.828-1.168-1.227-1.75-2.883-1.75-4.969 0-2.125.57-3.773 1.719-4.953 1.156-1.176 2.77-1.766 4.844-1.766 1.281 0 2.41.277 3.391.828.988.543 1.75 1.324 2.281 2.344.531 1.012.797 2.195.797 3.547zm-8.453 0c0 1.125.148 1.984.453 2.578.301.586.801.875 1.5.875.707 0 1.203-.289 1.484-.875.289-.594.438-1.453.438-2.578 0-1.102-.148-1.941-.437-2.516s-.793-.859-1.5-.859c-.687 0-1.184.289-1.484.859-.305.563-.453 1.402-.453 2.516zm0 0"/><path d="M132.838 18.946a6.41 6.41 0 0 1 1.109.094l.266.047-.406 4.25c-.375-.094-.887-.141-1.531-.141-.992 0-1.711.227-2.156.672-.437.449-.656 1.094-.656 1.938v6.422h-4.5V19.18h3.344l.703 2.078h.219c.375-.687.895-1.242 1.563-1.672.676-.426 1.359-.641 2.047-.641zM63.372 37.329v7.547c0 1.648-.469 2.922-1.406 3.828-.93.898-2.266 1.344-4.016 1.344-1.711 0-3.027-.437-3.953-1.312-.918-.875-1.375-2.133-1.375-3.781V37.33h3.406v7.359c0 .887.164 1.531.5 1.938.332.398.82.594 1.469.594.695 0 1.203-.195 1.516-.594s.469-1.047.469-1.953V37.33zm8.267 12.719c-.5 0-.945-.078-1.328-.234-.387-.164-.773-.461-1.156-.891h-.156l.156 1.266v3.906h-3.359V40.157h2.734l.469 1.234h.156c.625-.937 1.484-1.406 2.578-1.406 1.082 0 1.926.449 2.531 1.344.613.887.922 2.105.922 3.656 0 1.574-.32 2.813-.953 3.719a3.01 3.01 0 0 1-2.594 1.344zm-1.125-7.437c-.5 0-.852.18-1.047.531-.187.355-.293.875-.312 1.563v.266c0 .844.109 1.453.328 1.828.227.367.582.547 1.063.547.426 0 .734-.18.922-.547.195-.375.297-.988.297-1.844 0-.832-.102-1.43-.297-1.797-.187-.363-.508-.547-.953-.547zm9.941 7.265h-3.359V36.517h3.359zm11.617-4.891c0 1.594-.434 2.84-1.297 3.734-.855.887-2.047 1.328-3.578 1.328-1.48 0-2.656-.453-3.531-1.359-.875-.914-1.312-2.148-1.312-3.703 0-1.582.426-2.812 1.281-3.687s2.055-1.312 3.609-1.312c.957 0 1.801.203 2.531.609s1.289.992 1.688 1.75c.406.75.609 1.633.609 2.641zm-6.312 0c0 .844.109 1.484.328 1.922.227.438.609.656 1.141.656.52 0 .883-.219 1.094-.656.219-.437.328-1.078.328-1.922 0-.82-.109-1.445-.328-1.875s-.59-.641-1.109-.641-.898.215-1.125.641c-.219.418-.328 1.043-.328 1.875zm14.555 4.891l-.641-1.281h-.062c-.461.555-.922.934-1.391 1.141s-1.074.313-1.812.313c-.918 0-1.641-.27-2.172-.812-.523-.551-.781-1.328-.781-2.328 0-1.031.359-1.801 1.078-2.312s1.758-.797 3.125-.859l1.625-.047v-.141c0-.801-.398-1.203-1.187-1.203-.711 0-1.609.242-2.703.719l-.969-2.203c1.133-.582 2.566-.875 4.297-.875 1.25 0 2.211.309 2.891.922.688.617 1.031 1.48 1.031 2.594v6.375zm-2.484-2.203c.406 0 .75-.125 1.031-.375a1.3 1.3 0 0 0 .438-1.016v-.75l-.766.031c-1.105.043-1.656.449-1.656 1.219 0 .594.316.891.953.891zm10.12 2.375c-.699 0-1.309-.195-1.828-.594-.512-.395-.914-.973-1.203-1.734-.281-.77-.422-1.664-.422-2.687 0-1.582.316-2.816.953-3.703.633-.895 1.508-1.344 2.625-1.344.539 0 1.016.109 1.422.328.406.211.781.574 1.125 1.094h.063a16.54 16.54 0 0 1-.156-2.281v-2.609h3.375v13.359h-2.531l-.719-1.234h-.125c-.586.938-1.445 1.406-2.578 1.406zm1.359-2.656c.539 0 .922-.164 1.141-.5.219-.344.336-.863.359-1.562v-.266c0-.863-.125-1.473-.375-1.828-.242-.363-.625-.547-1.156-.547-.437 0-.781.211-1.031.625-.242.406-.359.996-.359 1.766 0 .75.117 1.324.359 1.719a1.18 1.18 0 0 0 1.063.594zm11.611 2.656c-1.625 0-2.887-.426-3.781-1.281-.898-.863-1.344-2.094-1.344-3.687 0-1.645.414-2.906 1.25-3.781s2.016-1.312 3.547-1.312c1.469 0 2.598.383 3.391 1.141.801.762 1.203 1.859 1.203 3.297v1.5h-6c.02.543.219.969.594 1.281.375.305.883.453 1.531.453.594 0 1.133-.051 1.625-.156.5-.113 1.039-.305 1.625-.578v2.406a5.86 5.86 0 0 1-1.641.563c-.563.102-1.23.156-2 .156zm-.203-7.781c-.398 0-.73.125-1 .375-.262.25-.414.641-.453 1.172h2.875c-.012-.469-.148-.844-.406-1.125-.25-.281-.59-.422-1.016-.422zm12.237-2.282a5.61 5.61 0 0 1 .828.063l.188.031-.297 3.172c-.273-.07-.652-.109-1.141-.109-.73 0-1.262.172-1.594.516-.336.336-.5.813-.5 1.438v4.781h-3.359v-9.719h2.5l.531 1.547h.156a3.35 3.35 0 0 1 1.172-1.234c.5-.32 1.004-.484 1.516-.484zm0 0"/></g></svg>