<svg xmlns="http://www.w3.org/2000/svg" xmlns:xlink="http://www.w3.org/1999/xlink" width="80" zoomAndPan="magnify" viewBox="0 0 60 60" height="80" preserveAspectRatio="xMidYMid meet" version="1.0"><defs><g/><clipPath id="22f2cdfade"><path d="M 0.121094 0.128906 L 59.867188 0.128906 L 59.867188 59.871094 L 0.121094 59.871094 Z M 0.121094 0.128906 " clip-rule="nonzero"/></clipPath><clipPath id="949bfd548a"><path d="M 29.996094 0.128906 C 13.496094 0.128906 0.121094 13.503906 0.121094 30 C 0.121094 46.496094 13.496094 59.871094 29.996094 59.871094 C 46.492188 59.871094 59.867188 46.496094 59.867188 30 C 59.867188 13.503906 46.492188 0.128906 29.996094 0.128906 " clip-rule="nonzero"/></clipPath><clipPath id="62cc29e7f2"><path d="M 2.320312 2.277344 L 57.761719 2.277344 L 57.761719 57.722656 L 2.320312 57.722656 Z M 2.320312 2.277344 " clip-rule="nonzero"/></clipPath><clipPath id="b7672152cf"><path d="M 30.039062 2.277344 C 14.730469 2.277344 2.320312 14.691406 2.320312 30 C 2.320312 45.308594 14.730469 57.722656 30.039062 57.722656 C 45.351562 57.722656 57.761719 45.308594 57.761719 30 C 57.761719 14.691406 45.351562 2.277344 30.039062 2.277344 " clip-rule="nonzero"/></clipPath><clipPath id="4aa21a2c81"><path d="M 5.308594 10.480469 L 54.691406 10.480469 L 54.691406 49.519531 L 5.308594 49.519531 Z M 5.308594 10.480469 " clip-rule="nonzero"/></clipPath><clipPath id="426cf48c0f"><path d="M 30 10.480469 C 16.363281 10.480469 5.308594 19.21875 5.308594 30 C 5.308594 40.78125 16.363281 49.519531 30 49.519531 C 43.636719 49.519531 54.691406 40.78125 54.691406 30 C 54.691406 19.21875 43.636719 10.480469 30 10.480469 " clip-rule="nonzero"/></clipPath><clipPath id="d9219c9064"><path d="M 35.308594 23.382812 L 37.9375 23.382812 L 37.9375 44.882812 L 35.308594 44.882812 Z M 35.308594 23.382812 " clip-rule="nonzero"/></clipPath><clipPath id="f48bd0fc80"><path d="M 35.308594 19.117188 L 40.207031 19.117188 L 40.207031 22.335938 L 35.308594 22.335938 Z M 35.308594 19.117188 " clip-rule="nonzero"/></clipPath><clipPath id="ead8fb4094"><path d="M 14.542969 19.117188 L 19.808594 19.117188 L 19.808594 48.011719 L 14.542969 48.011719 Z M 14.542969 19.117188 " clip-rule="nonzero"/></clipPath><clipPath id="679144b0b4"><path d="M 30.039062 19.117188 L 32.703125 19.117188 L 32.703125 44.65625 L 30.039062 44.65625 Z M 30.039062 19.117188 " clip-rule="nonzero"/></clipPath><clipPath id="3f251fbdbf"><path d="M 32.6875 19.117188 L 35.351562 19.117188 L 35.351562 44.65625 L 32.6875 44.65625 Z M 32.6875 19.117188 " clip-rule="nonzero"/></clipPath></defs><g clip-path="url(#22f2cdfade)"><g clip-path="url(#949bfd548a)"><path fill="#ff0000" d="M 0.121094 0.128906 L 59.867188 0.128906 L 59.867188 59.871094 L 0.121094 59.871094 Z M 0.121094 0.128906 " fill-opacity="1" fill-rule="nonzero"/></g></g><g clip-path="url(#62cc29e7f2)"><g clip-path="url(#b7672152cf)"><path fill="#000000" d="M 2.320312 2.277344 L 57.761719 2.277344 L 57.761719 57.722656 L 2.320312 57.722656 Z M 2.320312 2.277344 " fill-opacity="1" fill-rule="nonzero"/></g></g><g clip-path="url(#4aa21a2c81)"><g clip-path="url(#426cf48c0f)"><path fill="#ffffff" d="M 5.308594 10.480469 L 54.691406 10.480469 L 54.691406 49.519531 L 5.308594 49.519531 Z M 5.308594 10.480469 " fill-opacity="1" fill-rule="nonzero"/></g></g><g fill="#ff0000" fill-opacity="1"><g transform="translate(27.759748, 44.65034)"><g><path d="M 7.53125 -9 L 7.53125 0 L 2.28125 0 L 2.28125 -25.53125 L 12.234375 -25.53125 C 14.148438 -25.53125 15.835938 -25.175781 17.296875 -24.46875 C 18.753906 -23.769531 19.875 -22.773438 20.65625 -21.484375 C 21.4375 -20.191406 21.828125 -18.722656 21.828125 -17.078125 C 21.828125 -14.578125 20.96875 -12.601562 19.25 -11.15625 C 17.539062 -9.71875 15.175781 -9 12.15625 -9 Z M 7.53125 -13.25 L 12.234375 -13.25 C 13.628906 -13.25 14.691406 -13.578125 15.421875 -14.234375 C 16.148438 -14.890625 16.515625 -15.828125 16.515625 -17.046875 C 16.515625 -18.296875 16.144531 -19.304688 15.40625 -20.078125 C 14.675781 -20.847656 13.660156 -21.242188 12.359375 -21.265625 L 7.53125 -21.265625 Z M 7.53125 -13.25 "/></g></g></g><g fill="#000000" fill-opacity="1"><g transform="translate(12.264, 44.65034)"><g><path d="M 23.03125 0 L 17.78125 0 L 7.53125 -16.796875 L 7.53125 0 L 2.28125 0 L 2.28125 -25.53125 L 7.53125 -25.53125 L 17.796875 -8.703125 L 17.796875 -25.53125 L 23.03125 -25.53125 Z M 23.03125 0 "/></g></g></g><g clip-path="url(#d9219c9064)"><path fill="#ffffff" d="M 35.308594 23.382812 L 37.84375 23.382812 L 37.84375 44.914062 L 35.308594 44.914062 Z M 35.308594 23.382812 " fill-opacity="1" fill-rule="nonzero"/></g><g clip-path="url(#f48bd0fc80)"><path fill="#ff0000" d="M 35.308594 19.117188 L 40.164062 19.117188 L 40.164062 22.28125 L 35.308594 22.28125 Z M 35.308594 19.117188 " fill-opacity="1" fill-rule="nonzero"/></g><g clip-path="url(#ead8fb4094)"><path fill="#000000" d="M 14.542969 19.117188 L 19.820312 19.117188 L 19.820312 48.035156 L 14.542969 48.035156 Z M 14.542969 19.117188 " fill-opacity="1" fill-rule="nonzero"/></g><g clip-path="url(#679144b0b4)"><path fill="#ff0000" d="M 30.039062 19.117188 L 32.785156 19.117188 L 32.785156 44.660156 L 30.039062 44.660156 Z M 30.039062 19.117188 " fill-opacity="1" fill-rule="nonzero"/></g><g clip-path="url(#3f251fbdbf)"><path fill="#000000" d="M 32.6875 19.117188 L 35.433594 19.117188 L 35.433594 44.660156 L 32.6875 44.660156 Z M 32.6875 19.117188 " fill-opacity="1" fill-rule="nonzero"/></g></svg>